<mxfile host="app.diagrams.net" modified="2023-11-26T13:57:08.282Z" agent="Mozilla/5.0 (X11; Ubuntu; Linux x86_64; rv:120.0) Gecko/20100101 Firefox/120.0" version="22.1.4" etag="8HXko9seLO4PxBqma4bi" type="github">
  <diagram name="Page-1" id="SFa9heQhQjA40UWdNVfd">
    <mxGraphModel>
      <root>
        <mxCell id="0" />
        <mxCell id="1" parent="0" />
      </root>
    </mxGraphModel>
  </diagram>
</mxfile>
